<svg xmlns="http://www.w3.org/2000/svg" width="160" height="160" viewBox="0 0 160 160">
  <g fill="none" stroke="#C9A227" stroke-opacity="0.16" stroke-width="1.5">
    <!-- Ishtar gate crenellations -->
    <path d="M0 20 h20 v-12 h12 v12 h24 v-12 h12 v12 h24 v-12 h12 v12 h24 v-12 h12 v12 h20"/>
    <path d="M0 140 h20 v12 h12 v-12 h24 v12 h12 v-12 h24 v12 h12 v-12 h24 v12 h12 v-12 h20"/>
    <!-- Rosette (Babylonian flower) -->
    <circle cx="80" cy="80" r="10"/>
    <g transform="translate(80 80)">
      <circle r="3" cx="0" cy="-18"/><circle r="3" cx="12.7" cy="-12.7"/>
      <circle r="3" cx="18" cy="0"/><circle r="3" cx="12.7" cy="12.7"/>
      <circle r="3" cx="0" cy="18"/><circle r="3" cx="-12.7" cy="12.7"/>
      <circle r="3" cx="-18" cy="0"/><circle r="3" cx="-12.7" cy="-12.7"/>
    </g>
    <!-- Corner rosettes -->
    <circle cx="20" cy="60" r="4"/><circle cx="140" cy="60" r="4"/>
    <circle cx="20" cy="100" r="4"/><circle cx="140" cy="100" r="4"/>
  </g>
</svg>
